{"title":"Unstoppable.2010.720p.BRRip.x264.Feel-Free","uid":6121405,"size":1964914825,"categoryP":"video","categoryS":"hd___movies","magnet":"?xt=urn:btih:9466082000e0fd106dcd7b169e4166268bc7c5f8&amp;dn=Unstoppable.2010.720p.BRRip.x264.Feel-Free&amp;tr=udp%3A%2F%2Ftracker.openbittorrent.com%3A80&amp;tr=udp%3A%2F%2Fopen.demonii.com%3A1337&amp;tr=udp%3A%2F%2Ftracker.coppersurfer.tk%3A6969&amp;tr=udp%3A%2F%2Fexodus.desync.com%3A6969","seeders":0,"leechers":1,"uploader":".BONE.","files":12,"time":1295764188,"description":"Genre:Action | Drama | Thriller\nLanguage:English\n &lt;a href=&quot;\nhttp://www.imdb.com/title/tt0477080/&quot; rel=&quot;nofollow&quot; target=&quot;_NEW&quot;&gt;\nhttp://www.imdb.com/title/tt0477080/&lt;/a&gt;\n\nSource:1080p.DTS.x264.CHD\n\n\nFormat : Matroska\nFile size : 1.82 GiB\nDuration : 1h 38mn\nOverall bit rate : 2 648 Kbps\n\n\nVideo\nFormat settings, CABAC : Yes\nFormat settings, ReFrames : 4 frames\nCodec ID : V_MPEG4/ISO/AVC\nDuration : 1h 38mn\nBit rate : 2 300 Kbps\nWidth : 1 280 pixels\nHeight : 544 pixels\nDisplay aspect ratio : 2.35:1\nFrame rate mode : Variable\nFrame rate : 23.976 fps\nColor space : YUV\nChroma subsampling : 4:2:0\nBit depth : 8 bits\nScan type : Progressive\nBits/(Pixel*Frame) : 0.138\nStream size : 1.52 GiB (84%)\nWriting library : x264\n\n\nAudio\nID : 2\nFormat : AC-3\nFormat/Info : Audio Coding 3\nMode extension : CM (complete main)\nCodec ID : A_AC3\nDuration : 1h 38mn\nBit rate mode : Constant\nBit rate : 384 Kbps\nChannel(s) : 6 channels\nChannel positions : Front: L C R, Side: L R, LFE\nSampling rate : 48.0 KHz\nBit depth : 16 bits\nVideo delay : -1mn 5s\nStream size : 271 MiB (14%)\nLanguage : English\n\n\n\nPlot:\nWith an unmanned, half-mile-long freight train barreling toward a city, a veteran engineer and a young conductor race against the clock to prevent a catastrophe\n &lt;a href=&quot;\nhttp://shareimage.org/images/q6gvrskntlcsjs6rk7oo.png&quot; rel=&quot;nofollow&quot; target=&quot;_NEW&quot;&gt;\nhttp://shareimage.org/images/q6gvrskntlcsjs6rk7oo.png&lt;/a&gt;\n &lt;a href=&quot;\nhttp://shareimage.org/images/mp4gxnedmd4vxrnm8u2c.png&quot; rel=&quot;nofollow&quot; target=&quot;_NEW&quot;&gt;\nhttp://shareimage.org/images/mp4gxnedmd4vxrnm8u2c.png&lt;/a&gt;\n &lt;a href=&quot;\nhttp://shareimage.org/images/dce9cubfonl8udq6saxf.png&quot; rel=&quot;nofollow&quot; target=&quot;_NEW&quot;&gt;\nhttp://shareimage.org/images/dce9cubfonl8udq6saxf.png&lt;/a&gt;\n &lt;a href=&quot;\nhttp://shareimage.org/images/oulm1md0anjgbuyuro.png&quot; rel=&quot;nofollow&quot; target=&quot;_NEW&quot;&gt;\nhttp://shareimage.org/images/oulm1md0anjgbuyuro.png&lt;/a&gt;\n &lt;a href=&quot;\nhttp://shareimage.org/images/fqw8po41t7od619qd5b.png&quot; rel=&quot;nofollow&quot; target=&quot;_NEW&quot;&gt;\nhttp://shareimage.org/images/fqw8po41t7od619qd5b.png&lt;/a&gt;\n &lt;a href=&quot;\nhttp://shareimage.org/images/bklmzhhhanymx11regzo.png&quot; rel=&quot;nofollow&quot; target=&quot;_NEW&quot;&gt;\nhttp://shareimage.org/images/bklmzhhhanymx11regzo.png&lt;/a&gt;\n\n","torrent":{"xt":"urn:btih:9466082000e0fd106dcd7b169e4166268bc7c5f8","amp;dn":"Unstoppable.2010.720p.BRRip.x264.Feel-Free","amp;tr":["udp%3A%2F%2Ftracker.openbittorrent.com%3A80","udp%3A%2F%2Fopen.demonii.com%3A1337","udp%3A%2F%2Ftracker.coppersurfer.tk%3A6969","udp%3A%2F%2Fexodus.desync.com%3A6969"],"infoHash":"9466082000e0fd106dcd7b169e4166268bc7c5f8","infoHashBuffer":{"type":"Buffer","data":[148,102,8,32,0,224,253,16,109,205,123,22,158,65,102,38,139,199,197,248]},"announce":[],"urlList":[]}}